<svg width="512" height="512" viewBox="0 0 512 512" xmlns="http://www.w3.org/2000/svg" xmlns:sketch="http://www.bohemiancoding.com/sketch/ns"><title>Close</title><path d="M150.628 54.628c-12.497-12.497-32.76-12.497-45.257.001l-50.742 50.742c-12.492 12.492-12.501 32.757-.007 45.251l105.378 105.378-105.378 105.378c-12.494 12.494-12.485 32.759.007 45.251l50.742 50.742c12.498 12.498 32.761 12.498 45.251.007l105.378-105.378 105.378 105.378c12.49 12.49 32.753 12.491 45.251-.007l50.742-50.742c12.492-12.492 12.495-32.763-.005-45.263l-105.366-105.366 105.378-105.378c12.494-12.494 12.485-32.759-.007-45.251l-50.742-50.742c-12.498-12.498-32.761-12.498-45.251-.007l-105.378 105.378-105.372-105.372z" fill="#000000" sketch:type="MSShapeGroup" fill-rule="evenodd"/></svg>