<svg width="512" height="512" viewBox="0 0 512 512" xmlns="http://www.w3.org/2000/svg"><title>Slice 1</title><path d="M64 96v32l64 224h320l55.21-193.236c4.854-16.991-5.49-31.954-23.105-33.422l-352.106-29.342h-64zm64 320h320v-32h-320v32zm64 32c0-17.673-14.327-32-32-32-17.673 0-32 14.327-32 32 0 17.673 14.327 32 32 32 17.673 0 32-14.327 32-32zm256 0c0-17.673-14.327-32-32-32-17.673 0-32 14.327-32 32 0 17.673 14.327 32 32 32 17.673 0 32-14.327 32-32zm-352-368c0 8.837 7.163 16 16 16h-48v-16c0-8.836-7.163-16-15.999-16h-32.001000000000005c-8.837 0-16-7.163-16-16v-16h80c8.837 0 16 7.163 16 16v16h-47.714 47.714v16zm0 0" fill="#000000" fill-rule="evenodd"/></svg>