<svg width="512" height="512" viewBox="0 0 512 512" xmlns="http://www.w3.org/2000/svg"><title>Slice 1</title><path d="M54.629 105.371l50.742-50.742c12.498-12.498 32.761-12.498 45.251-.007l105.378 105.378 105.378-105.378c12.49-12.49 32.753-12.491 45.251.007l50.742 50.742c12.492 12.492 12.501 32.757.007 45.251l-105.378 105.378 105.378 105.378c12.494 12.494 12.485 32.759-.007 45.251l-50.742 50.742c-12.498 12.498-32.761 12.498-45.251.007l-105.378-105.378-105.378 105.378c-12.49 12.49-32.753 12.491-45.251-.007l-50.742-50.742c-12.492-12.492-12.501-32.757-.007-45.251l105.378-105.378-105.378-105.378c-12.494-12.494-12.485-32.759.007-45.251zm0 0" fill="#000000" fill-rule="evenodd"/></svg>