<svg width="512" height="512" viewBox="0 0 512 512" xmlns="http://www.w3.org/2000/svg" xmlns:sketch="http://www.bohemiancoding.com/sketch/ns"><title>Camera</title><path d="M32.004 480h447.993c17.675 0 32.004-14.317 32.004-31.995v-288.01c0-17.67-14.329-31.995-32.004-31.995h-447.993c-17.675 0-32.004 14.317-32.004 31.995v288.01c0 17.67 14.329 31.995 32.004 31.995zm-.004-384s0-64 32-64h128c32 0 32 64 32 64h-192zm96 208c0 70.692 57.308 128 128 128 70.692 0 128-57.308 128-128 0-70.692-57.308-128-128-128-70.692 0-128 57.308-128 128zm32 0c0 53.019 42.981 96 96 96s96-42.981 96-96-42.981-96-96-96-96 42.981-96 96zm303.999-112c8.837 0 16.001-7.162 16.001-16 0-8.837-7.157-16-16.001-16h-63.999c-8.837 0-16.001 7.162-16.001 16 0 8.837 7.157 16 16.001 16h63.999z" fill="#000000" sketch:type="MSShapeGroup" fill-rule="evenodd"/></svg>