<svg width="512" height="512" viewBox="0 0 512 512" xmlns="http://www.w3.org/2000/svg" xmlns:sketch="http://www.bohemiancoding.com/sketch/ns"><title>Cart</title><path d="M448 416v-32h-320v32h320zm-288 0c-17.673 0-32 14.327-32 32 0 17.673 14.327 32 32 32 17.673 0 32-14.327 32-32 0-17.673-14.327-32-32-32zm256 0c-17.673 0-32 14.327-32 32 0 17.673 14.327 32 32 32 17.673 0 32-14.327 32-32 0-17.673-14.327-32-32-32zm-320-327.992c0 4.415 3.578 7.992 7.992 7.992h24.008l352.106 29.342c17.614 1.468 27.959 16.432 23.105 33.422l-55.21 193.236h-320l-64-224v-51.992999999999995c0-6.631-5.374-12.007-12-12.007h-52v-32h79.999c8.837 0 16.001 7.168 16.001 15.995v40.013z" fill="#000000" sketch:type="MSShapeGroup" fill-rule="evenodd"/></svg>