<svg width="512" height="512" viewBox="0 0 512 512" xmlns="http://www.w3.org/2000/svg"><title>Slice 1</title><path d="M227.26 188.83c-2.133-9.266-3.26-18.917-3.26-28.83 0-70.692 57.308-128 128-128 70.692 0 128 57.308 128 128 0 70.692-57.308 128-128 128-9.887 0-19.513-1.121-28.757-3.243l-35.243 35.243h-64v64h-64v64h-64v32h-32c-17.68 0-32-14.33-32-32.006v-63.763l195.26-195.4zm188.74-60.83c0-17.673-14.327-32-32-32-17.673 0-32 14.327-32 32 0 17.673 14.327 32 32 32 17.673 0 32-14.327 32-32zm0 0" fill="#000000" fill-rule="evenodd"/></svg>