<svg width="512" height="512" viewBox="0 0 512 512" xmlns="http://www.w3.org/2000/svg" xmlns:sketch="http://www.bohemiancoding.com/sketch/ns"><title>Camera 2</title><path d="M0 224.002v191.996c0 17.674 14.317 32.002 31.995 32.002h288.01c17.67 0 31.995-14.335 31.995-32.002v-191.996c0-17.674-14.317-32.002-31.995-32.002h-288.01c-17.67 0-31.995 14.335-31.995 32.002zm128-96.002c0-35.346-28.654-64-64-64-35.346 0-64 28.654-64 64 0 35.346 28.654 64 64 64 35.346 0 64-28.654 64-64zm160 0c0-35.346-28.654-64-64-64-35.346 0-64 28.654-64 64 0 35.346 28.654 64 64 64 35.346 0 64-28.654 64-64zm96 160s0-64 64-64h64v192h-64c-64 0-64-64-64-64v-64zm64 128h32v-192h-32v192z" fill="#000000" sketch:type="MSShapeGroup" fill-rule="evenodd"/></svg>