<svg width="512" height="512" viewBox="0 0 512 512" xmlns="http://www.w3.org/2000/svg" xmlns:sketch="http://www.bohemiancoding.com/sketch/ns"><title>Plugin</title><path d="M64 320c-17.673 0-32-14.327-32-32v-128h32v-96c0-17.673 14.327-32 32-32 17.673 0 32 14.327 32 32v96h64v-96c0-17.673 14.327-32 32-32 17.673 0 32 14.327 32 32v96h32v128c0 17.673-14.327 32-32 32h-63.649c4.55 52.605 52.799 94 111.649 94 61.856 0 112-45.731 112-102.143v-279.857h64v288c0 88.366-78.798 160-176 160s-176-71.634-176-160h-64z" fill="#000000" sketch:type="MSShapeGroup" fill-rule="evenodd"/></svg>