<svg width="512" height="512" viewBox="0 0 512 512" xmlns="http://www.w3.org/2000/svg" xmlns:sketch="http://www.bohemiancoding.com/sketch/ns"><title>Key</title><path d="M64 480c-17.68 0-32-14.33-32-32.006v-63.763l195.26-195.4c-2.133-9.266-3.26-18.916-3.26-28.83 0-70.692 57.308-128 128-128 70.692 0 128 57.308 128 128 0 70.692-57.308 128-128 128-9.888 0-19.513-1.121-28.757-3.243l-35.243 35.243h-64v64h-64v64h-64v32h16-48zm352-352c0-17.673-14.327-32-32-32-17.673 0-32 14.327-32 32 0 17.673 14.327 32 32 32 17.673 0 32-14.327 32-32z" fill="#000000" sketch:type="MSShapeGroup" fill-rule="evenodd"/></svg>