<svg width="512" height="512" viewBox="0 0 512 512" xmlns="http://www.w3.org/2000/svg"><title>Slice 1</title><path d="M0 128c0-35.346 28.654-64 64-64 35.346 0 64 28.654 64 64 0 35.346-28.654 64-64 64h256.005c17.678 0 31.995 14.328 31.995 32.002v191.996c0 17.666-14.325 32.002-31.995 32.002h-288.01c-17.678 0-31.995-14.328-31.995-32.002v-191.996c0-17.666 14.325-32.002 31.995-32.002h32.005c-35.346 0-64-28.654-64-64zm160 0c0-35.346 28.654-64 64-64 35.346 0 64 28.654 64 64 0 35.346-28.654 64-64 64-35.346 0-64-28.654-64-64zm352 96v192h-32v-192h32zm-128 128v-64s0-64 64-64v192c-64 0-64-64-64-64zm0 0" fill="#000000" fill-rule="evenodd"/></svg>