<svg width="512" height="512" viewBox="0 0 512 512" xmlns="http://www.w3.org/2000/svg" xmlns:sketch="http://www.bohemiancoding.com/sketch/ns"><title>Print</title><path d="M32.004 384c-17.674 0-32.004-14.328-32.004-32.002v-191.996c0-17.666 14.329-32.002 32.004-32.002h447.993c17.674 0 32.004 14.328 32.004 32.002v191.996c0 17.666-14.329 32.002-32.004 32.002h-63.996v64.01c0 17.664-14.327 31.99-32 31.99h-256c-17.681 0-32-14.323-32-31.99v-64.01h-63.996zm95.996 64h256v-128h-256v128zm288-272c0 8.837 7.155 16 16.005 16h31.989c8.84 0 16.005-7.162 16.005-16 0-8.837-7.155-16-16.005-16h-31.989c-8.84 0-16.005 7.162-16.005 16zm-320-80h320v-64h-320v64z" fill="#000000" sketch:type="MSShapeGroup" fill-rule="evenodd"/></svg>