<svg width="512" height="512" viewBox="0 0 512 512" xmlns="http://www.w3.org/2000/svg" xmlns:sketch="http://www.bohemiancoding.com/sketch/ns"><title>Print</title><path d="M0 160.002v191.996c0 17.674 14.329 32.002 32.004 32.002h447.993c17.675 0 32.004-14.335 32.004-32.002v-191.996c0-17.674-14.329-32.002-32.004-32.002h-447.993c-17.675 0-32.004 14.335-32.004 32.002zm96 287.998c0 17.673 14.319 32 32 32h256c17.673 0 32-14.32 32-32v-64h-320v64zm32 0h256v-128h-256v128zm288-272c0 8.837 7.155 16 16.005 16h31.989c8.84 0 16.005-7.162 16.005-16 0-8.837-7.155-16-16.005-16h-31.989c-8.84 0-16.005 7.162-16.005 16zm-320-80h320v-64h-320v64z" fill="#000000" sketch:type="MSShapeGroup" fill-rule="evenodd"/></svg>