<svg width="512" height="512" viewBox="0 0 512 512" xmlns="http://www.w3.org/2000/svg" xmlns:sketch="http://www.bohemiancoding.com/sketch/ns"><title>Shutdown</title><path d="M448 288c0 106.039-85.961 192-192 192s-192-85.961-192-192c0-83.598 53.428-154.717 128-181.075v70.199c-38.259 22.132-64 63.498-64 110.876 0 70.692 57.308 128 128 128 70.692 0 128-57.308 128-128 0-47.378-25.741-88.744-64-110.876v-70.199c74.572 26.358 128 97.477 128 181.075zm-224-223.996v159.991c0 17.676 14.323 32.004 32 32.004 17.673 0 32-14.332 32-32.004v-159.991c0-17.676-14.323-32.004-32-32.004-17.673 0-32 14.332-32 32.004z" fill="#000000" sketch:type="MSShapeGroup" fill-rule="evenodd"/></svg>