<svg width="512" height="512" viewBox="0 0 512 512" xmlns="http://www.w3.org/2000/svg"><title>Slice 1</title><path d="M288 320c0-17.673-14.327-32-32-32-17.673 0-32 14.327-32 32 0 9.169 3.857 17.438 10.036 23.272-10.036 28.413-10.036 72.728-10.036 72.728h64s0-44.315-10.036-72.728c6.18-5.834 10.036-14.103 10.036-23.272zm32-160c0-35.346-28.654-64-64-64-35.346 0-64 28.654-64 64 0 11.657 3.117 22.586 8.562 32h-68.529c-2.632-10.228-4.033-20.95-4.033-32 0-70.692 57.308-128 128-128 70.692 0 128 57.308 128 128 0 11.05-1.4 21.772-4.033 32h-68.529c5.445-9.414 8.562-20.343 8.562-32zm-192 64h288.003c17.673 0 31.997 14.328 31.997 32.002v159.997c0 35.349-28.655 64.001-64.003 64.001h-255.994c-35.356 0-64.003-28.654-64.003-64.001v-159.997c0-17.666 14.326-32.002 31.997-32.002h32.003zm0 0" fill="#000000" fill-rule="evenodd"/></svg>