<svg width="512" height="512" viewBox="0 0 512 512" xmlns="http://www.w3.org/2000/svg"><title>Slice 1</title><path d="M192 32c32 0 32 64 32 64h-192s0-64 32-64h128zm287.996 96c17.674 0 32.004 14.325 32.004 31.995v288.01c0 17.678-14.329 31.995-32.004 31.995h-447.993c-17.674 0-32.004-14.325-32.004-31.995v-288.01c0-17.678 14.329-31.995 32.004-31.995h447.993zm-95.996 176c0-70.692-57.308-128-128-128-70.692 0-128 57.308-128 128 0 70.692 57.308 128 128 128 70.692 0 128-57.308 128-128zm-32 0c0-53.019-42.981-96-96-96s-96 42.981-96 96 42.981 96 96 96 96-42.981 96-96zm32-128c0 8.837 7.157 16 16.001 16h63.999c8.837 0 16.001-7.162 16.001-16 0-8.837-7.157-16-16.001-16h-63.999c-8.837 0-16.001 7.162-16.001 16zm0 0" fill="#000000" fill-rule="evenodd"/></svg>