<svg width="512" height="512" viewBox="0 0 512 512" xmlns="http://www.w3.org/2000/svg"><title>Slice 1</title><path d="M384 288c0-47.378-25.741-88.744-64-110.876v-70.199c74.572 26.358 128 97.477 128 181.075 0 106.039-85.961 192-192 192s-192-85.961-192-192c0-83.598 53.428-154.717 128-181.075v70.199c-38.259 22.132-64 63.498-64 110.876 0 70.692 57.308 128 128 128 70.692 0 128-57.308 128-128zm-160-64.004v-159.991c0-17.673 14.327-32.004 32-32.004 17.677 0 32 14.329 32 32.004v159.991c0 17.673-14.327 32.004-32 32.004-17.677 0-32-14.329-32-32.004zm0 0" fill="#000000" fill-rule="evenodd"/></svg>