<svg width="512" height="512" viewBox="0 0 512 512" xmlns="http://www.w3.org/2000/svg" xmlns:sketch="http://www.bohemiancoding.com/sketch/ns"><title>Time</title><path d="M32 256c0 123.712 100.288 224 224 224s224-100.288 224-224-100.288-224-224-224-224 100.288-224 224zm64 0c0 88.366 71.634 160 160 160s160-71.634 160-160-71.634-160-160-160-160 71.634-160 160zm79.994 0h72.005c4.419 0 8.001-3.584 8.001-8.01v-103.99c0-8.841 7.163-16 16-16 8.838 0 16 7.163 16 16v128c0 8.841-7.163 16-16 16h-96.006c-8.824 0-15.994-7.163-15.994-16 0-8.838 7.161-16 15.994-16z" fill="#000000" sketch:type="MSShapeGroup" fill-rule="evenodd"/></svg>