<svg width="512" height="512" viewBox="0 0 512 512" xmlns="http://www.w3.org/2000/svg" xmlns:sketch="http://www.bohemiancoding.com/sketch/ns"><title>Poster</title><path d="M64 31.997v336.007c0 8.834 5.067 21.063 11.317 27.313l105.366 105.366c6.25 6.25 18.482 11.317 27.319 11.317h207.996c17.674 0 32.002-14.329 32.002-32.004v-447.993c0-17.675-14.324-32.004-31.997-32.004h-320.006c-17.671 0-31.997 14.324-31.997 31.997zm32 8.003v303.994c0 4.422 3.591 8.006 8.007 8.006h119.993v119.993c0 4.422 3.572 8.007 7.995 8.007h176c4.421 0 8.006-3.573 8.006-8.002v-431.996c0-4.419-3.58-8.002-8-8.002h-304c-4.418 0-8 3.58-8 8zm88 344c4.418 0 8 3.58 8 8v72l-80-80h72zm-56-32h96v64h160v-352h-256v288z" fill="#000000" sketch:type="MSShapeGroup" fill-rule="evenodd"/></svg>