<svg width="512" height="512" viewBox="0 0 512 512" xmlns="http://www.w3.org/2000/svg" xmlns:sketch="http://www.bohemiancoding.com/sketch/ns"><title>Download</title><path d="M95.997 448h320.006c17.671 0 31.997-14.323 31.997-32v-96h-64v55.991c0 4.43-3.582 8.009-8 8.009h-239.995c-4.421 0-8.005-3.578-8.005-8.009v-55.991h-64v96c0 17.673 14.324 32 31.997 32zm208.003-368v112h47.998c17.666 0 23.051 11.188 12.011 24.989l-98.018 122.523c-5.51 6.888-14.464 6.897-19.981 0l-98.018-122.523c-11.041-13.802-5.664-24.989 12.011-24.989h47.998v-112c0-8.841 7.164-16 16.001-16h63.999c8.844 0 16.001 7.163 16.001 16z" fill="#000000" sketch:type="MSShapeGroup" fill-rule="evenodd"/></svg>