<svg width="512" height="512" viewBox="0 0 512 512" xmlns="http://www.w3.org/2000/svg" xmlns:sketch="http://www.bohemiancoding.com/sketch/ns"><title>Attachment</title><path d="M256 272c0 8.837 7.163 16 16 16s16-7.163 16-16v-80c0-35.346-28.654-64-64-64-35.346 0-64 28.654-64 64v80c0 61.856 50.144 112 112 112s112-50.144 112-112v-144c0-17.673 14.327-32 32-32 17.673 0 32 14.327 32 32v144c0 97.202-78.798 176-176 176s-176-78.798-176-176v-80c0-70.692 57.308-128 128-128 70.692 0 128 57.308 128 128v80c0 44.183-35.817 80-80 80s-80-35.817-80-80v-80c0-17.673 14.327-32 32-32 17.673 0 32 14.327 32 32v80z" fill="#000000" sketch:type="MSShapeGroup" fill-rule="evenodd"/></svg>