<svg width="512" height="512" viewBox="0 0 512 512" xmlns="http://www.w3.org/2000/svg" xmlns:sketch="http://www.bohemiancoding.com/sketch/ns"><title>Shopping</title><path d="M32 384c0 53.019 42.981 96 96 96h256c53.019 0 96-42.981 96-96v-192c0-17.673-14.327-32-32-32h-384c-17.673 0-32 14.327-32 32v192zm112 32h224c26.51 0 48-21.49 48-48v-144h-320v143.992c0 26.517 21.49 48.008 48 48.008zm16-128c-17.673 0-32-14.327-32-32v-32h64v32c0 17.673-14.327 32-32 32zm192 0c-17.673 0-32-14.327-32-32v-32h64v32c0 17.673-14.327 32-32 32zm-96-256c-70.692 0-128 57.308-128 128h256c0-70.692-57.308-128-128-128zm0 64c-35.346 0-64 28.654-64 64h128c0-35.346-28.654-64-64-64z" fill="#000000" sketch:type="MSShapeGroup" fill-rule="evenodd"/></svg>