<svg width="512" height="512" viewBox="0 0 512 512" xmlns="http://www.w3.org/2000/svg" xmlns:sketch="http://www.bohemiancoding.com/sketch/ns"><title>Document</title><path d="M448 448v-271.994c0-8.84-5.067-21.073-11.317-27.323l-105.366-105.366c-6.25-6.25-18.482-11.317-27.319-11.317h-207.996c-17.674 0-32.002 14.336-32.002 31.994v384.011c0 17.67 14.324 31.994 31.997 31.994h320.006c17.671 0 31.997-14.319 31.997-32zm-32-7.995v-240.009c0-4.416-3.591-7.995-8.007-7.995h-88.003c-17.668 0-31.99-14.326-31.99-31.99v-88.003c0-4.422-3.58-8.007-8.006-8.007h-175.989c-4.421 0-8.006 3.586-8.006 7.998v368.003c0 4.417 3.58 7.998 8 7.998h304c4.418 0 8-3.582 8-7.995zm-88-280.005c-4.418 0-8-3.58-8-8v-72l80 80h-72zm-200 96h256v-32h-256v32zm0 64h256v-32h-256v32zm0 64h256v-32h-256v32z" fill="#000000" sketch:type="MSShapeGroup" fill-rule="evenodd"/></svg>