<svg width="512" height="512" viewBox="0 0 512 512" xmlns="http://www.w3.org/2000/svg" xmlns:sketch="http://www.bohemiancoding.com/sketch/ns"><title>Scissors</title><path d="M224 112c0-44.183-35.817-80-80-80s-80 35.817-80 80 35.817 80 80 80c5.479 0 10.83-.551 16-1.6 0 0 0 33.6 32 65.6l10.116 10.116c-44.593 61.545-101.384 140.495-106.116 149.884-12.616 25.036 0 64 0 64l160-160 160 160s12.616-38.964 0-64c-4.731-9.389-61.522-88.339-106.116-149.884l10.116-10.116c32-32 32-65.6 32-65.6 5.17 1.049 10.521 1.6 16 1.6 44.183 0 80-35.817 80-80s-35.817-80-80-80-80 35.817-80 80v48c0 30.386-31.971 31.999-32 32 0 0-32-1.6-32-32v-48zm-120 1c0 22.091 17.909 40 40 40s40-17.909 40-40-17.909-40-40-40-40 17.909-40 40zm304 0c0 22.091-17.909 40-40 40s-40-17.909-40-40 17.909-40 40-40 40 17.909 40 40zm-136 143c0-8.837-7.163-16-16-16s-16 7.163-16 16 7.163 16 16 16 16-7.163 16-16z" fill="#000000" sketch:type="MSShapeGroup" fill-rule="evenodd"/></svg>