<svg width="512" height="512" viewBox="0 0 512 512" xmlns="http://www.w3.org/2000/svg" xmlns:sketch="http://www.bohemiancoding.com/sketch/ns"><title>Lips</title><path d="M448 256c0 32-85.961 128-192 128s-192-96-192-128c0-28.715 69.217-108.963 160.047-125.138 10.392-1.851 31.953 21.138 31.953 21.138s21.608-22.984 32.021-21.126c90.797 16.203 159.979 96.418 159.979 125.126zm-64 0s-40.792-45.556-95.999-59.798c-10.228-2.639-19.001 11.798-32.001 11.798-13 0-21.745-14.44-31.962-11.808-55.227 14.23-96.038 59.808-96.038 59.808s57.308 64 128 64c70.692 0 128-64 128-64z" fill="#000000" sketch:type="MSShapeGroup" fill-rule="evenodd"/></svg>