<svg width="512" height="512" viewBox="0 0 512 512" xmlns="http://www.w3.org/2000/svg" xmlns:sketch="http://www.bohemiancoding.com/sketch/ns"><title>Charts</title><path d="M96 256c-17.673 0-32 14.333-32 32.001v127.997c0 17.674 14.32 32.001 32 32.001h32c17.673 0 32-14.333 32-32.001v-127.997c0-17.674-14.32-32.001-32-32.001h-32zm144-96c-17.673 0-32 14.331-32 31.991v224.019c0 17.668 14.32 31.991 32 31.991h32c17.673 0 32-14.331 32-31.991v-224.019c0-17.668-14.32-31.991-32-31.991h-32zm144-96c-17.673 0-32 14.324-32 31.997v320.006c0 17.671 14.32 31.997 32 31.997h32c17.673 0 32-14.324 32-31.997v-320.006c0-17.671-14.32-31.997-32-31.997h-32z" fill="#000000" sketch:type="MSShapeGroup" fill-rule="evenodd"/></svg>