<?xml version="1.0" encoding="UTF-8" standalone="no"?>
<svg width="512px" height="512px" version="1.1" xmlns="http://www.w3.org/2000/svg" xmlns:xlink="http://www.w3.org/1999/xlink" xmlns:sketch="http://www.bohemiancoding.com/sketch/ns">
    <title>Slice 1</title>
    <description>Created with Sketch (http://www.bohemiancoding.com/sketch)</description>
    <defs></defs>
    <g id="Page 1" fill="none" fill-rule="evenodd">
        <path d="M192,32 C224,32 224,96 224,96 L192,96 L64,96 L32,96 C32,96 32,32 64,32 L192,32 Z M479.996316,128 C497.670749,128 512,142.324633 512,159.994963 L512,448.005037 C512,465.682793 497.671463,480 479.996316,480 L32.0036842,480 C14.3292507,480 0,465.675367 0,448.005037 L0,159.994963 C0,142.317207 14.3285375,128 32.0036842,128 L479.996316,128 Z M384,304 C384,233.307549 326.692451,176 256,176 C185.307549,176 128,233.307549 128,304 C128,374.692451 185.307549,432 256,432 C326.692451,432 384,374.692451 384,304 Z M352,304 C352,250.980661 309.019339,208 256,208 C202.980661,208 160,250.980661 160,304 C160,357.019339 202.980661,400 256,400 C309.019339,400 352,357.019339 352,304 Z M384,176 C384,184.836556 391.156746,192 400.000692,192 L463.999308,192 C472.836246,192 480,184.838499 480,176 C480,167.163444 472.843254,160 463.999308,160 L400.000692,160 C391.163754,160 384,167.161501 384,176 Z M384,176" id="Camera" fill="#000000"></path>
    </g>
</svg>
