<?xml version="1.0" encoding="UTF-8" standalone="no"?>
<svg width="512px" height="512px" version="1.1" xmlns="http://www.w3.org/2000/svg" xmlns:xlink="http://www.w3.org/1999/xlink" xmlns:sketch="http://www.bohemiancoding.com/sketch/ns">
    <title>Slice 1</title>
    <description>Created with Sketch (http://www.bohemiancoding.com/sketch)</description>
    <defs></defs>
    <g id="Page 1" fill="none" fill-rule="evenodd">
        <path d="M64,96 L64,128 L128,352 L448,352 L503.210165,158.764422 C508.064657,141.773701 497.719713,126.809976 480.105595,125.342133 L128,96 L64,96 Z M128,416 L448,416 L448,384 L128,384 L128,416 Z M192,448 C192,430.326887 177.673113,416 160,416 C142.326887,416 128,430.326887 128,448 C128,465.673113 142.326887,480 160,480 C177.673113,480 192,465.673113 192,448 Z M448,448 C448,430.326887 433.673113,416 416,416 C398.326887,416 384,430.326887 384,448 C384,465.673113 398.326887,480 416,480 C433.673113,480 448,465.673113 448,448 Z M96,80 C96,88.8365564 103.163444,96 112,96 L64,96 L64,79.9999987 C64,71.1636458 56.8368843,64.0003279 48.0006116,64 L32,64 L16,64 C7.16344357,64 0,56.8365564 0,48 L0,32 L32,32 L80,32 C88.8365564,32 96,39.1634436 96,48 L96,64 L48.2861221,64 L96,64.0000019 L96,80 Z M96,80" id="Cart" fill="#000000"></path>
    </g>
</svg>
