<?xml version="1.0" encoding="UTF-8" standalone="no"?>
<svg width="512px" height="512px" version="1.1" xmlns="http://www.w3.org/2000/svg" xmlns:xlink="http://www.w3.org/1999/xlink" xmlns:sketch="http://www.bohemiancoding.com/sketch/ns">
    <title>Close</title>
    <description>Created with Sketch (http://www.bohemiancoding.com/sketch)</description>
    <defs></defs>
    <g id="Page-1" stroke="none" stroke-width="1" fill="none" fill-rule="evenodd" sketch:type="MSPage">
        <path d="M150.628332,54.6283321 C138.131167,42.1311666 117.868609,42.1313914 105.370904,54.629096 L54.629096,105.370904 C42.1374754,117.862525 42.1282062,138.128206 54.6219817,150.621982 L160,256 L54.6219817,361.378018 C42.1282062,373.871794 42.1374754,394.137475 54.629096,406.629096 L105.370904,457.370904 C117.868609,469.868609 138.131548,469.868452 150.621982,457.378018 L256,352 L361.378018,457.378018 C373.868452,469.868452 394.131391,469.868609 406.629096,457.370904 L457.370904,406.629096 C469.862525,394.137475 469.866365,373.866365 457.365894,361.365894 L352,256 L457.378018,150.621982 C469.871794,138.128206 469.862525,117.862525 457.370904,105.370904 L406.629096,54.629096 C394.131391,42.1313914 373.868452,42.1315476 361.378018,54.6219817 L256,160 L150.628332,54.6283321 Z" id="Close" fill="#000000" sketch:type="MSShapeGroup"></path>
    </g>
</svg>