<?xml version="1.0" encoding="UTF-8" standalone="no"?>
<svg width="512px" height="512px" version="1.1" xmlns="http://www.w3.org/2000/svg" xmlns:xlink="http://www.w3.org/1999/xlink" xmlns:sketch="http://www.bohemiancoding.com/sketch/ns">
    <title>Camera 2</title>
    <description>Created with Sketch (http://www.bohemiancoding.com/sketch)</description>
    <defs></defs>
    <g id="Page-1" stroke="none" stroke-width="1" fill="none" fill-rule="evenodd" sketch:type="MSPage">
        <path d="M0,224.001768 L0,415.998232 C0,433.67232 14.3172075,448 31.9949626,448 L320.005037,448 C337.675367,448 352,433.664719 352,415.998232 L352,224.001768 C352,206.32768 337.682793,192 320.005037,192 L31.9949626,192 C14.3246327,192 0,206.335281 0,224.001768 Z M128,128 C128,92.6537743 99.3462257,64 64,64 C28.6537743,64 0,92.6537743 0,128 C0,163.346226 28.6537743,192 64,192 C99.3462257,192 128,163.346226 128,128 Z M288,128 C288,92.6537743 259.346226,64 224,64 C188.653774,64 160,92.6537743 160,128 C160,163.346226 188.653774,192 224,192 C259.346226,192 288,163.346226 288,128 Z M384,288 C384,288 384,224 448,224 L512,224 L512,336 L512,416 L448,416 C384,416 384,352 384,352 L384,336 L384,288 Z M448,416 L480,416 L480,224 L448,224 L448,416 Z" id="Camera-2" fill="#000000" sketch:type="MSShapeGroup"></path>
    </g>
</svg>