<?xml version="1.0" encoding="UTF-8" standalone="no"?>
<svg width="512px" height="512px" version="1.1" xmlns="http://www.w3.org/2000/svg" xmlns:xlink="http://www.w3.org/1999/xlink" xmlns:sketch="http://www.bohemiancoding.com/sketch/ns">
    <title>Time</title>
    <description>Created with Sketch (http://www.bohemiancoding.com/sketch)</description>
    <defs></defs>
    <g id="Page-1" stroke="none" stroke-width="1" fill="none" fill-rule="evenodd" sketch:type="MSPage">
        <path d="M32,256 C32,379.71179 132.28821,480 256,480 C379.71179,480 480,379.71179 480,256 C480,132.28821 379.71179,32 256,32 C132.28821,32 32,132.28821 32,256 Z M96,256 C96,344.365564 167.634436,416 256,416 C344.365564,416 416,344.365564 416,256 C416,167.634436 344.365564,96 256,96 C167.634436,96 96,167.634436 96,256 Z M175.993883,256 L247.999337,256 C252.417981,256 256,252.416128 256,247.990191 L256,144.000102 C256,135.159573 263.163444,128 272,128 C280.838499,128 288,135.16349 288,144.000102 L288,271.999898 C288,280.840427 280.836556,288 272,288 L175.993883,288 C167.169821,288 160,280.836556 160,272 C160,263.161501 167.160705,256 175.993883,256 Z" id="Time" fill="#000000" sketch:type="MSShapeGroup"></path>
    </g>
</svg>