<?xml version="1.0" encoding="UTF-8" standalone="no"?>
<svg width="512px" height="512px" version="1.1" xmlns="http://www.w3.org/2000/svg" xmlns:xlink="http://www.w3.org/1999/xlink" xmlns:sketch="http://www.bohemiancoding.com/sketch/ns">
    <title>Document</title>
    <description>Created with Sketch (http://www.bohemiancoding.com/sketch)</description>
    <defs></defs>
    <g id="Page-1" stroke="none" stroke-width="1" fill="none" fill-rule="evenodd" sketch:type="MSPage">
        <path d="M448,447.999796 L448,176.005756 C448,167.166021 442.932946,154.932946 436.682977,148.682977 L331.317023,43.317023 C325.066804,37.0668038 312.835375,32 303.998158,32 L96.0017682,32 C78.3276796,32 64,46.3355003 64,63.9943866 L64,448.005613 C64,465.675625 78.3235467,480 95.9969832,480 L416.003017,480 C433.674463,480 448,465.680855 448,447.999796 Z M416,440.004558 L416,199.995442 C416,195.579681 412.409247,192 407.993027,192 L319.990228,192 C302.322513,192 288,177.673909 288,160.009772 L288,72.0069733 C288,67.584844 284.420246,64 279.994443,64 L104.005557,64 C99.58421,64 96,67.5863624 96,71.9983071 L96,440.001693 C96,444.419036 99.5800296,448 103.999999,448 L408.000001,448 C412.418279,448 416,444.417785 416,440.004558 Z M328.000051,160 C323.581745,160 320,156.420214 320,151.999949 L320,80 L400,160 L328.000051,160 Z M128,256 L384,256 L384,224 L128,224 L128,256 Z M128,320 L384,320 L384,288 L128,288 L128,320 Z M128,384 L384,384 L384,352 L128,352 L128,384 Z" id="Document" fill="#000000" sketch:type="MSShapeGroup"></path>
    </g>
</svg>