<?xml version="1.0" encoding="UTF-8" standalone="no"?>
<svg width="512px" height="512px" version="1.1" xmlns="http://www.w3.org/2000/svg" xmlns:xlink="http://www.w3.org/1999/xlink" xmlns:sketch="http://www.bohemiancoding.com/sketch/ns">
    <title>Link</title>
    <description>Created with Sketch (http://www.bohemiancoding.com/sketch)</description>
    <defs></defs>
    <g id="Page-1" stroke="none" stroke-width="1" fill="none" fill-rule="evenodd" sketch:type="MSPage">
        <path d="M384.000015,272.000001 C384,333.855895 333.855895,384 272,384 C210.144105,384 160.000001,333.855896 160,272.000001 L96,272.000001 C96,369.202122 174.797879,448.000001 272,448.000001 C369.202121,448.000001 448,369.202122 448,272.000001 L448,128 C448,110.326887 433.673113,96 416,96 C398.326887,96 384,110.326887 384,128 L384,272 L352,272 L352,192 C352,121.307548 294.692451,64 224,64 C153.307549,64 96,121.307548 96,192 L96,272 L160,272 L160,192 C160,156.653774 188.653774,128 224,128 C259.346226,128 288,156.653774 288,192 L288,272 L351.999999,272 C351.996328,271.997063 256,272 256,272 L192,272 L192,192 C192,174.326887 206.326887,160 224,160 C241.673113,160 256,174.326887 256,192 L256,272 C256,272 288,272 288,272 C288,280.836556 280.836556,288 272,288 C263.163444,288 256,280.836556 256,272 L192,272 C192,316.182783 227.817218,352 272,352 C316.182782,352 351.999999,316.182783 352,272.000001 L384.000015,272.000001 Z" id="Link" fill="#000000" sketch:type="MSShapeGroup"></path>
    </g>
</svg>