<?xml version="1.0" encoding="UTF-8" standalone="no"?>
<svg width="512px" height="512px" version="1.1" xmlns="http://www.w3.org/2000/svg" xmlns:xlink="http://www.w3.org/1999/xlink" xmlns:sketch="http://www.bohemiancoding.com/sketch/ns">
    <title>Charts</title>
    <description>Created with Sketch (http://www.bohemiancoding.com/sketch)</description>
    <defs></defs>
    <g id="Page-1" stroke="none" stroke-width="1" fill="none" fill-rule="evenodd" sketch:type="MSPage">
        <path d="M95.9999655,256 C78.3268726,256 64,270.333083 64,288.001384 L64,415.998616 C64,433.672492 78.3203044,448 95.9999655,448 L128.000034,448 C145.673127,448 160,433.666917 160,415.998616 L160,288.001384 C160,270.327508 145.679696,256 128.000034,256 L95.9999655,256 Z M239.999966,160 C222.326873,160 208,174.331195 208,191.990718 L208,416.009282 C208,433.677268 222.320304,448 239.999966,448 L272.000034,448 C289.673127,448 304,433.668805 304,416.009282 L304,191.990718 C304,174.322732 289.679696,160 272.000034,160 L239.999966,160 Z M383.999966,64 C366.326873,64 352,78.3235467 352,95.9969832 L352,416.003017 C352,433.674463 366.320304,448 383.999966,448 L416.000034,448 C433.673127,448 448,433.676453 448,416.003017 L448,95.9969832 C448,78.3255373 433.679696,64 416.000034,64 L383.999966,64 Z" id="Charts" fill="#000000" sketch:type="MSShapeGroup"></path>
    </g>
</svg>