<?xml version="1.0" encoding="UTF-8" standalone="no"?>
<svg width="512px" height="512px" version="1.1" xmlns="http://www.w3.org/2000/svg" xmlns:xlink="http://www.w3.org/1999/xlink" xmlns:sketch="http://www.bohemiancoding.com/sketch/ns">
    <title>Scissors</title>
    <description>Created with Sketch (http://www.bohemiancoding.com/sketch)</description>
    <defs></defs>
    <g id="Page-1" stroke="none" stroke-width="1" fill="none" fill-rule="evenodd" sketch:type="MSPage">
        <path d="M224,112 C224,67.8172178 188.182782,32 144,32 C99.8172178,32 64,67.8172178 64,112 C64,156.182782 99.8172178,192 144,192 C149.479453,192 154.830241,191.449116 160,190.39971 C160,190.39971 160,224 192,256 L202.115662,266.115662 C157.522354,327.660536 100.731266,406.610819 96,416 C83.3841012,441.036209 96,480 96,480 L256,320 L416,480 C416,480 428.615899,441.036209 416,416 C411.268734,406.610819 354.477646,327.660536 309.884338,266.115662 L320,256 C352,224 352,190.39971 352,190.39971 C357.169759,191.449116 362.520547,192 368,192 C412.182782,192 448,156.182782 448,112 C448,67.8172178 412.182782,32 368,32 C323.817218,32 288,67.8172178 288,112 L288,160 C288,190.385816 256.029231,191.998532 256.00002,191.999999 C256,192 224,190.399704 224,160 L224,112 Z M104,113 C104,135.091391 121.908609,153 144,153 C166.091391,153 184,135.091391 184,113 C184,90.9086089 166.091391,73 144,73 C121.908609,73 104,90.9086089 104,113 Z M408,113 C408,135.091391 390.091391,153 368,153 C345.908609,153 328,135.091391 328,113 C328,90.9086089 345.908609,73 368,73 C390.091391,73 408,90.9086089 408,113 Z M272,256 C272,247.163444 264.836556,240 256,240 C247.163444,240 240,247.163444 240,256 C240,264.836556 247.163444,272 256,272 C264.836556,272 272,264.836556 272,256 Z" id="Scissors" fill="#000000" sketch:type="MSShapeGroup"></path>
    </g>
</svg>