<?xml version="1.0" encoding="UTF-8" standalone="no"?>
<svg width="512px" height="512px" version="1.1" xmlns="http://www.w3.org/2000/svg" xmlns:xlink="http://www.w3.org/1999/xlink" xmlns:sketch="http://www.bohemiancoding.com/sketch/ns">
    <title>Shopping</title>
    <description>Created with Sketch (http://www.bohemiancoding.com/sketch)</description>
    <defs></defs>
    <g id="Page-1" stroke="none" stroke-width="1" fill="none" fill-rule="evenodd" sketch:type="MSPage">
        <path d="M31.9999981,384 C31.9999981,437.019339 74.9806595,480 127.999998,480 L383.999998,480 C437.019337,480 479.999998,437.019339 479.999998,384 L479.999998,192 C479.999998,174.326887 465.673111,160 447.999998,160 L63.9999981,160 C46.3268852,160 31.9999981,174.326887 31.9999981,192 L31.9999981,384 Z M143.999998,416 L367.999998,416 C394.509667,416 415.999998,394.509669 415.999998,368 L415.999998,224 L95.9999981,224 L95.9999981,367.992188 C95.9999981,394.509669 117.490329,416 143.999998,416 Z M159.999998,288 C142.326885,288 127.999998,273.673113 127.999998,256 L127.999998,224 L191.999998,224 L191.999998,256 C191.999998,273.673113 177.673111,288 159.999998,288 Z M351.999998,288 C334.326885,288 319.999998,273.673113 319.999998,256 L319.999998,224 L383.999998,224 L383.999998,256 C383.999998,273.673113 369.673111,288 351.999998,288 Z M255.999998,32 C185.307547,32 127.999998,89.3075485 127.999998,160 L383.999998,160 C383.999998,89.3075485 326.69245,32 255.999998,32 Z M255.999998,96 C220.653772,96 191.999998,124.653774 191.999998,160 L319.999998,160 C319.999998,124.653774 291.346224,96 255.999998,96 Z" id="Shopping" fill="#000000" sketch:type="MSShapeGroup"></path>
    </g>
</svg>