<?xml version="1.0" encoding="UTF-8" standalone="no"?>
<svg width="512px" height="512px" viewBox="0 0 512 512" version="1.1" xmlns="http://www.w3.org/2000/svg" xmlns:xlink="http://www.w3.org/1999/xlink" xmlns:sketch="http://www.bohemiancoding.com/sketch/ns">
    <title>Slice 1</title>
    <description>Created with Sketch (http://www.bohemiancoding.com/sketch)</description>
    <defs></defs>
    <g id="Page 1" fill="none" fill-rule="evenodd">
        <path d="M145.124119,224 C167.255866,262.259254 208.621894,288 256,288 C303.378106,288 344.744134,262.259254 366.875881,224 L384,224 C419.346226,224 448,252.653774 448,288 L448,480 L64,480 L64,288 C64,252.653774 92.6537743,224 128,224 L145.124119,224 Z M352,128 C352,74.9806614 309.019339,32 256,32 C202.980661,32 160,74.9806614 160,128 C160,181.019339 202.980661,224 256,224 C309.019339,224 352,181.019339 352,128 Z M352,128" id="User" fill="#000000"></path>
    </g>
</svg>
