<?xml version="1.0" encoding="UTF-8" standalone="no"?>
<svg width="512px" height="512px" viewBox="0 0 512 512" version="1.1" xmlns="http://www.w3.org/2000/svg" xmlns:xlink="http://www.w3.org/1999/xlink" xmlns:sketch="http://www.bohemiancoding.com/sketch/ns">
    <title>Lock</title>
    <description>Created with Sketch (http://www.bohemiancoding.com/sketch)</description>
    <defs></defs>
    <g id="Page-1" stroke="none" stroke-width="1" fill="none" fill-rule="evenodd" sketch:type="MSPage">
        <path d="M64,256.001768 L64,415.998934 C64,451.345747 92.6465727,480 128.002769,480 L383.997231,480 C419.344984,480 448,451.347819 448,415.998934 L448,256.001768 C448,238.32768 433.676453,224 416.003017,224 L95.9969832,224 C78.3255373,224 64,238.335281 64,256.001768 Z M288,416 C288,416 288,371.685031 277.963811,343.272223 C284.143411,337.437956 288,329.169356 288,320 C288,302.326887 273.673113,288 256,288 C238.326887,288 224,302.326887 224,320 C224,329.169355 227.856588,337.437954 234.036188,343.272222 C224,371.68503 224,416 224,416 L288,416 Z M128,160 C128,89.3075485 185.307549,32 256,32 C326.692451,32 384,89.3075485 384,160 C384,171.049586 382.599904,181.772163 379.967441,192 L311.43794,192 C316.883379,182.586466 320,171.657196 320,160 C320,124.653774 291.346226,96 256,96 C220.653774,96 192,124.653774 192,160 C192,171.657196 195.116621,182.586466 200.56207,192.000018 L132.032559,192 C129.400096,181.772163 128,171.049586 128,160 Z" id="Lock" fill="#000000" sketch:type="MSShapeGroup"></path>
    </g>
</svg>