<?xml version="1.0" encoding="UTF-8" standalone="no"?>
<svg width="512px" height="512px" viewBox="0 0 512 512" version="1.1" xmlns="http://www.w3.org/2000/svg" xmlns:xlink="http://www.w3.org/1999/xlink" xmlns:sketch="http://www.bohemiancoding.com/sketch/ns">
    <title>Search</title>
    <description>Created with Sketch (http://www.bohemiancoding.com/sketch)</description>
    <defs></defs>
    <g id="Page-1" stroke="none" stroke-width="1" fill="none" fill-rule="evenodd" sketch:type="MSPage">
        <path d="M128,208 C128,110.797879 206.797879,32 304,32 C401.202121,32 480,110.797879 480,208 C480,305.202121 401.202121,384 304,384 C271.823943,384 241.664543,375.365669 215.712397,360.287603 L96,480 C60.6538843,480 32,451.346224 32,416 L151.712397,296.287603 C136.634331,270.335457 128,240.176057 128,208 Z M416,208 C416,146.144105 365.855895,96 304,96 C242.144105,96 192,146.144105 192,208 C192,269.855895 242.144105,320 304,320 C365.855895,320 416,269.855895 416,208 Z" id="Search" fill="#000000" sketch:type="MSShapeGroup"></path>
    </g>
</svg>