<?xml version="1.0" encoding="UTF-8" standalone="no"?>
<svg width="512px" height="512px" viewBox="0 0 512 512" version="1.1" xmlns="http://www.w3.org/2000/svg" xmlns:xlink="http://www.w3.org/1999/xlink" xmlns:sketch="http://www.bohemiancoding.com/sketch/ns">
    <title>Camera</title>
    <description>Created with Sketch (http://www.bohemiancoding.com/sketch)</description>
    <defs></defs>
    <g id="Page-1" stroke="none" stroke-width="1" fill="none" fill-rule="evenodd" sketch:type="MSPage">
        <path d="M32.0036842,480 L479.996316,480 C497.671463,480 512,465.682793 512,448.005037 L512,159.994963 C512,142.324633 497.670749,128 479.996316,128 L32.0036842,128 C14.3285375,128 0,142.317207 0,159.994963 L0,448.005037 C0,465.675367 14.3292507,480 32.0036842,480 Z M32,96 C32,96 32,32 64,32 L192,32 C224,32 224,96 224,96 L32,96 Z M128,304 C128,374.692451 185.307549,432 256,432 C326.692451,432 384,374.692451 384,304 C384,233.307549 326.692451,176 256,176 C185.307549,176 128,233.307549 128,304 Z M160,304 C160,357.019339 202.980661,400 256,400 C309.019339,400 352,357.019339 352,304 C352,250.980661 309.019339,208 256,208 C202.980661,208 160,250.980661 160,304 Z M463.999308,192 C472.836246,192 480,184.838499 480,176 C480,167.163444 472.843254,160 463.999308,160 L400.000692,160 C391.163754,160 384,167.161501 384,176 C384,184.836556 391.156746,192 400.000692,192 L463.999308,192 Z" id="Camera" fill="#000000" sketch:type="MSShapeGroup"></path>
    </g>
</svg>