<?xml version="1.0" encoding="UTF-8" standalone="no"?>
<svg width="512px" height="512px" viewBox="0 0 512 512" version="1.1" xmlns="http://www.w3.org/2000/svg" xmlns:xlink="http://www.w3.org/1999/xlink" xmlns:sketch="http://www.bohemiancoding.com/sketch/ns">
    <title>Slice 1</title>
    <description>Created with Sketch (http://www.bohemiancoding.com/sketch)</description>
    <defs></defs>
    <g id="Page 1" fill="none" fill-rule="evenodd">
        <path d="M288,320 C288,302.326887 273.673113,288 256,288 C238.326887,288 224,302.326887 224,320 C224,329.169355 227.856588,337.437954 234.036188,343.272221 C224,371.685028 224,416 224,416 L288,416 C288,416 288,371.68503 277.96381,343.272222 C284.143411,337.437956 288,329.169356 288,320 Z M320,160 C320,124.653774 291.346226,96 256,96 C220.653774,96 192,124.653774 192,160 C192,171.657173 195.116608,182.586423 200.56206,192 L132.032562,192 C129.40011,181.772273 128,171.049643 128,160 C128,89.3075485 185.307549,32 256,32 C326.692451,32 384,89.3075485 384,160 C384,171.049643 382.59989,181.772273 379.967438,192 L311.43794,192 C316.883392,182.586423 320,171.657173 320,160 Z M128,224 L145.124119,224 L242.745165,224 L256.000224,224 L366.875882,224 L384,224 L416.003017,224 C433.676453,224 448,238.32768 448,256.001768 L448,415.998934 C448,451.347819 419.344984,480 383.997231,480 L128.002769,480 C92.6465727,480 64,451.345747 64,415.998934 L64,256.001768 C64,238.335281 78.3255373,224 95.9969832,224 L128,224 Z M128,224" id="Lock" fill="#000000"></path>
    </g>
</svg>
