<?xml version="1.0" encoding="UTF-8" standalone="no"?>
<svg width="512px" height="512px" viewBox="0 0 512 512" version="1.1" xmlns="http://www.w3.org/2000/svg" xmlns:xlink="http://www.w3.org/1999/xlink" xmlns:sketch="http://www.bohemiancoding.com/sketch/ns">
    <title>Cart</title>
    <description>Created with Sketch (http://www.bohemiancoding.com/sketch)</description>
    <defs></defs>
    <g id="Page-1" stroke="none" stroke-width="1" fill="none" fill-rule="evenodd" sketch:type="MSPage">
        <path d="M448,416 L448,384 L128,384 L128,416 L448,416 Z M160,416 C142.326887,416 128,430.326887 128,448 C128,465.673113 142.326887,480 160,480 C177.673113,480 192,465.673113 192,448 C192,430.326887 177.673113,416 160,416 Z M416,416 C398.326887,416 384,430.326887 384,448 C384,465.673113 398.326887,480 416,480 C433.673113,480 448,465.673113 448,448 C448,430.326887 433.673113,416 416,416 Z M96,88.0075946 C96,92.4223393 99.5783218,96 103.992405,96 L128,96 L480.105595,125.342133 C497.719713,126.809976 508.064657,141.773701 503.210165,158.764422 L448,352 L128,352 L64,128 L64,96 L64,76.0066619 C64,69.3755656 58.6260441,64 51.9996487,64 L0,64 L0,32 L79.9993079,32 C88.8362461,32 96,39.1679058 96,47.9952895 L96,76.0037973 L96,88.0075946 Z" id="Cart" fill="#000000" sketch:type="MSShapeGroup"></path>
    </g>
</svg>