<?xml version="1.0" encoding="UTF-8" standalone="no"?>
<svg width="512px" height="512px" viewBox="0 0 512 512" version="1.1" xmlns="http://www.w3.org/2000/svg" xmlns:xlink="http://www.w3.org/1999/xlink" xmlns:sketch="http://www.bohemiancoding.com/sketch/ns">
    <title>Plugin</title>
    <description>Created with Sketch (http://www.bohemiancoding.com/sketch)</description>
    <defs></defs>
    <g id="Page-1" stroke="none" stroke-width="1" fill="none" fill-rule="evenodd" sketch:type="MSPage">
        <path d="M64,320 C46.3268871,320 32,305.673113 32,288 L32,160 L64,160 L64,64 C64,46.3268871 78.3268871,32 96,32 C113.673113,32 128,46.3268871 128,64 L128,160 L192,160 L192,64 C192,46.3268871 206.326887,32 224,32 C241.673113,32 256,46.3268871 256,64 L256,160 L288,160 L288,288 C288,305.673113 273.673113,320 256,320 L192.350705,320 C196.900266,372.604913 245.149445,414 304,414 C365.855895,414 416,368.269088 416,311.857143 L416,32 L480,32 L480,320 C480,408.365564 401.202121,480 304,480 C206.797879,480 128,408.365564 128,320 L64,320 Z" id="Plugin" fill="#000000" sketch:type="MSShapeGroup"></path>
    </g>
</svg>