<?xml version="1.0" encoding="UTF-8" standalone="no"?>
<svg width="512px" height="512px" viewBox="0 0 512 512" version="1.1" xmlns="http://www.w3.org/2000/svg" xmlns:xlink="http://www.w3.org/1999/xlink" xmlns:sketch="http://www.bohemiancoding.com/sketch/ns">
    <title>User</title>
    <description>Created with Sketch (http://www.bohemiancoding.com/sketch)</description>
    <defs></defs>
    <g id="Page-1" stroke="none" stroke-width="1" fill="none" fill-rule="evenodd" sketch:type="MSPage">
        <path d="M366.87586,224.000036 L384.060601,224.000028 C419.378971,224.032757 448,252.673977 448,288 L448,256 L448,480 L64,479.999972 L64,255.999972 L64,287.999972 C64,252.673949 92.6210288,224.032729 127.939399,224 L145.12414,224.000008 C167.255947,262.259276 208.621941,287.999972 256,287.999972 C303.378059,288 344.744053,262.259305 366.87586,224.000036 Z M256,32 C202.980661,32 160,74.9806614 160,128 C160,181.019339 202.980661,224 256,224 C309.019339,224 352,181.019339 352,128 C352,74.9806614 309.019339,32 256,32 Z" id="User" fill="#000000" sketch:type="MSShapeGroup"></path>
    </g>
</svg>