<?xml version="1.0" encoding="UTF-8" standalone="no"?>
<svg width="512px" height="512px" viewBox="0 0 512 512" version="1.1" xmlns="http://www.w3.org/2000/svg" xmlns:xlink="http://www.w3.org/1999/xlink" xmlns:sketch="http://www.bohemiancoding.com/sketch/ns">
    <title>Slice 1</title>
    <description>Created with Sketch (http://www.bohemiancoding.com/sketch)</description>
    <defs></defs>
    <g id="Page 1" fill="none" fill-rule="evenodd">
        <path d="M384,288 C384,240.621894 358.259254,199.255866 320,177.124119 L320,106.925164 C394.572418,133.282831 448,204.402072 448,288 C448,394.038677 362.038677,480 256,480 C149.961323,480 64,394.038677 64,288 C64,204.402072 117.427582,133.282831 192,106.925164 L192,177.124119 C153.740746,199.255866 128,240.621894 128,288 C128,358.692451 185.307549,416 256,416 C326.692451,416 384,358.692451 384,288 Z M224,223.995548 L224,64.0044521 C224,46.3315605 238.326888,32 256,32 C273.676998,32 288,46.3288813 288,64.0044521 L288,223.995548 C288,241.668439 273.673112,256 256,256 C238.323002,256 224,241.671119 224,223.995548 Z M224,223.995548" id="Shutdown" fill="#000000"></path>
    </g>
</svg>
