<?xml version="1.0" encoding="UTF-8" standalone="no"?>
<svg width="512px" height="512px" viewBox="0 0 512 512" version="1.1" xmlns="http://www.w3.org/2000/svg" xmlns:xlink="http://www.w3.org/1999/xlink" xmlns:sketch="http://www.bohemiancoding.com/sketch/ns">
    <title>Shutdown</title>
    <description>Created with Sketch (http://www.bohemiancoding.com/sketch)</description>
    <defs></defs>
    <g id="Page-1" stroke="none" stroke-width="1" fill="none" fill-rule="evenodd" sketch:type="MSPage">
        <path d="M448,288 C448,394.038677 362.038677,480 256,480 C149.961323,480 64,394.038677 64,288 C64,204.401992 117.427684,133.282695 191.999995,106.925166 L191.999964,177.12414 C153.740695,199.255947 128,240.621941 128,288 C128,358.692451 185.307549,416 256,416 C326.692451,416 384,358.692451 384,288 C384,240.621941 358.259305,199.255947 320,177.124119 L320,106.925164 C394.572314,133.282692 448,204.40199 448,288 Z M224,64.0044521 L224,223.995548 C224,241.671119 238.323002,256 256,256 C273.673112,256 288,241.668439 288,223.995548 L288,64.0044521 C288,46.3288813 273.676998,32 256,32 C238.326888,32 224,46.3315605 224,64.0044521 Z" id="Shutdown" fill="#000000" sketch:type="MSShapeGroup"></path>
    </g>
</svg>