<?xml version="1.0" encoding="UTF-8" standalone="no"?>
<svg width="512px" height="512px" viewBox="0 0 512 512" version="1.1" xmlns="http://www.w3.org/2000/svg" xmlns:xlink="http://www.w3.org/1999/xlink" xmlns:sketch="http://www.bohemiancoding.com/sketch/ns">
    <title>Slice 1</title>
    <description>Created with Sketch (http://www.bohemiancoding.com/sketch)</description>
    <defs></defs>
    <g id="Page 1" fill="none" fill-rule="evenodd">
        <path d="M0,128 C0,92.6537743 28.6537743,64 64,64 C99.3462257,64 128,92.6537743 128,128 C128,163.346226 99.3462257,192 64,192 L223.999776,192 L320.005037,192 C337.682793,192 352,206.32768 352,224.001768 L352,415.998232 C352,433.664719 337.675367,448 320.005037,448 L31.9949626,448 C14.3172075,448 0,433.67232 0,415.998232 L0,224.001768 C0,206.335281 14.3246327,192 31.9949626,192 L64,192 C28.6537743,192 0,163.346226 0,128 Z M160,128 C160,92.6537743 188.653774,64 224,64 C259.346226,64 288,92.6537743 288,128 C288,163.346226 259.346226,192 224,192 C188.653774,192 160,163.346226 160,128 Z M512,224 L512,320 L512,416 L480,416 L480,224 L512,224 Z M384,352 L384,320 L384,288 C384,288 384,224 448,224 L448,416 C384,416 384,352 384,352 Z M384,352" id="Camera 2" fill="#000000"></path>
    </g>
</svg>
