<?xml version="1.0" encoding="UTF-8" standalone="no"?>
<svg width="512px" height="512px" viewBox="0 0 512 512" version="1.1" xmlns="http://www.w3.org/2000/svg" xmlns:xlink="http://www.w3.org/1999/xlink" xmlns:sketch="http://www.bohemiancoding.com/sketch/ns">
    <title>Keyboard</title>
    <description>Created with Sketch (http://www.bohemiancoding.com/sketch)</description>
    <defs></defs>
    <g id="Page-1" stroke="none" stroke-width="1" fill="none" fill-rule="evenodd" sketch:type="MSPage">
        <path d="M512,159.990718 L512,384.009282 C512,401.668805 497.671463,416 479.996316,416 L32.0036842,416 C14.3292507,416 0,401.677268 0,384.009282 L0,159.990718 C0,142.331195 14.3285375,128 32.0036842,128 L240,128 L240,96 L272,96 L272,128 L479.996316,128 C497.670749,128 512,142.322732 512,159.990718 Z M32,375.994731 C32,380.415919 35.5734403,384 40.001907,384 L471.998093,384 C476.417424,384 480,380.413551 480,375.994731 L480,168.005269 C480,163.584081 476.42656,160 471.998093,160 L40.001907,160 C35.5825758,160 32,163.586449 32,168.005269 L32,375.994731 Z M128,288 L128,256 L64,256 L64,288 L128,288 Z M352,224 L352,192 L320,192 L320,224 L352,224 Z M288,224 L288,192 L256,192 L256,224 L288,224 Z M160,224 L160,192 L128,192 L128,224 L160,224 Z M224,224 L224,192 L192,192 L192,224 L224,224 Z M96,224 L96,192 L64,192 L64,224 L96,224 Z M256,288 L256,256 L224,256 L224,288 L256,288 Z M192,288 L192,256 L160,256 L160,288 L192,288 Z M320,288 L320,256 L288,256 L288,288 L320,288 Z M384,288 L384,256 L352,256 L352,288 L384,288 Z M448,352 L448,320 L416,320 L416,352 L448,352 Z M448,192 L448,288 L416,288 L416,224 L384,224 L384,192 L432,192 L448,192 Z M384,352 L384,320 L128,320 L128,352 L384,352 Z M96,352 L96,320 L64,320 L64,352 L96,352 Z" id="Keyboard" fill="#000000" sketch:type="MSShapeGroup"></path>
    </g>
</svg>