<?xml version="1.0" encoding="UTF-8" standalone="no"?>
<svg width="512px" height="512px" viewBox="0 0 512 512" version="1.1" xmlns="http://www.w3.org/2000/svg" xmlns:xlink="http://www.w3.org/1999/xlink" xmlns:sketch="http://www.bohemiancoding.com/sketch/ns">
    <title>Attachment</title>
    <description>Created with Sketch (http://www.bohemiancoding.com/sketch)</description>
    <defs></defs>
    <g id="Page-1" stroke="none" stroke-width="1" fill="none" fill-rule="evenodd" sketch:type="MSPage">
        <path d="M256,272 C256,280.836556 263.163444,288 272,288 C280.836556,288 288,280.836556 288,272 L288,192 C288,156.653774 259.346226,128 224,128 C188.653775,128 160,156.653774 160,192 L160,272.000001 C160.000001,333.855896 210.144106,384 272,384 C333.855895,384 383.999985,333.855895 384,272 L384,128 C384,110.326887 398.326887,96 416,96 C433.673113,96 448,110.326887 448,128 L448,272.000001 C448,369.202122 369.202121,448.000001 272,448.000001 C174.797879,448.000001 96.0000002,369.202122 96.0000002,272.000001 L96.0000002,192 C96.0000002,121.307548 153.307549,64 224,64 C294.692452,64 352,121.307548 352,192 L352,272 C351.999999,316.182782 316.182782,352 272,352 C227.817218,352 192,316.182783 192,272 L192,192 C192,174.326887 206.326888,160 224,160 C241.673113,160 256,174.326887 256,191.999999 L256,272 Z" id="Attachment" fill="#000000" sketch:type="MSShapeGroup"></path>
    </g>
</svg>