<?xml version="1.0" encoding="UTF-8" standalone="no"?>
<svg width="512px" height="512px" viewBox="0 0 512 512" version="1.1" xmlns="http://www.w3.org/2000/svg" xmlns:xlink="http://www.w3.org/1999/xlink" xmlns:sketch="http://www.bohemiancoding.com/sketch/ns">
    <title>Poster</title>
    <description>Created with Sketch (http://www.bohemiancoding.com/sketch)</description>
    <defs></defs>
    <g id="Page-1" stroke="none" stroke-width="1" fill="none" fill-rule="evenodd" sketch:type="MSPage">
        <path d="M64,31.9969832 L64,368.004057 C64,376.838372 69.0670541,389.067054 75.317023,395.317023 L180.682977,500.682977 C186.933196,506.933196 199.164625,512 208.001842,512 L415.998232,512 C433.67232,512 448,497.670749 448,479.996316 L448,32.0036842 C448,14.3285375 433.676453,0 416.003017,0 L95.9969832,0 C78.3255373,0 64,14.3235467 64,31.9969832 Z M96,39.9999987 L96,343.993828 C96,348.415515 99.5907529,352 104.006973,352 L224,352 L224,471.993027 C224,476.415156 227.57237,480 231.99467,480 L407.994443,480 C412.41579,480 416,476.42656 416,471.998093 L416,40.001907 C416,35.5825758 412.41997,32 408.000001,32 L103.999999,32 C99.5817214,32 96,35.5800296 96,39.9999987 Z M183.999949,384 C188.418255,384 192,387.579786 192,392.000051 L192,464 L112,384 L183.999949,384 Z M128,352 L224,352 L224,416 L384,416 L384,64 L128,64 L128,352 Z" id="Poster" fill="#000000" sketch:type="MSShapeGroup"></path>
    </g>
</svg>